<mxfile host="app.diagrams.net" agent="Mozilla/5.0 (Macintosh; Intel Mac OS X 10_15_7) AppleWebKit/605.1.15 (KHTML, like Gecko) Version/17.5 Safari/605.1.15" version="26.2.9">
  <diagram name="第 1 页" id="RZs3oEh2QptLlVuGpw_1">
    <mxGraphModel dx="418" dy="358" grid="1" gridSize="10" guides="1" tooltips="1" connect="1" arrows="1" fold="1" page="1" pageScale="1" pageWidth="827" pageHeight="1169" math="0" shadow="0">
      <root>
        <mxCell id="0" />
        <mxCell id="1" parent="0" />
        <mxCell id="g9lLfUykJCi8mAgqDcdI-21" value="" style="rounded=0;whiteSpace=wrap;html=1;" parent="1" vertex="1">
          <mxGeometry x="316" y="769" width="112" height="40" as="geometry" />
        </mxCell>
        <mxCell id="g9lLfUykJCi8mAgqDcdI-2" value="" style="rounded=0;whiteSpace=wrap;html=1;" parent="1" vertex="1">
          <mxGeometry x="290" y="690" width="286" height="280" as="geometry" />
        </mxCell>
        <mxCell id="g9lLfUykJCi8mAgqDcdI-3" value="&lt;font style=&quot;font-size: 20px;&quot;&gt;云边协同AI推理调度模型&lt;/font&gt;" style="text;html=1;align=center;verticalAlign=middle;whiteSpace=wrap;rounded=0;" parent="1" vertex="1">
          <mxGeometry x="296" y="696" width="260" height="30" as="geometry" />
        </mxCell>
        <mxCell id="g9lLfUykJCi8mAgqDcdI-19" value="&lt;font size=&quot;4&quot;&gt;模型定义&lt;/font&gt;" style="text;html=1;align=center;verticalAlign=middle;whiteSpace=wrap;rounded=0;" parent="1" vertex="1">
          <mxGeometry x="355" y="730" width="150" height="30" as="geometry" />
        </mxCell>
        <mxCell id="g9lLfUykJCi8mAgqDcdI-18" value="" style="rounded=1;whiteSpace=wrap;html=1;arcSize=8;" parent="1" vertex="1">
          <mxGeometry x="306" y="730" width="250" height="150" as="geometry" />
        </mxCell>
        <mxCell id="g9lLfUykJCi8mAgqDcdI-25" value="" style="group" parent="1" vertex="1" connectable="0">
          <mxGeometry x="434" y="760" width="112" height="103" as="geometry" />
        </mxCell>
        <mxCell id="g9lLfUykJCi8mAgqDcdI-26" value="" style="rounded=0;whiteSpace=wrap;html=1;" parent="g9lLfUykJCi8mAgqDcdI-25" vertex="1">
          <mxGeometry width="112" height="103" as="geometry" />
        </mxCell>
        <mxCell id="g9lLfUykJCi8mAgqDcdI-27" value="&lt;font size=&quot;3&quot;&gt;边缘节点&lt;/font&gt;" style="rounded=1;whiteSpace=wrap;html=1;fillColor=#f5f5f5;fontColor=#333333;strokeColor=#666666;" parent="g9lLfUykJCi8mAgqDcdI-25" vertex="1">
          <mxGeometry x="4.1200000000000045" y="32" width="103.5" height="30" as="geometry" />
        </mxCell>
        <mxCell id="g9lLfUykJCi8mAgqDcdI-28" value="&lt;font size=&quot;3&quot;&gt;云端节点&lt;/font&gt;" style="rounded=1;whiteSpace=wrap;html=1;fillColor=#f5f5f5;fontColor=#333333;strokeColor=#666666;" parent="g9lLfUykJCi8mAgqDcdI-25" vertex="1">
          <mxGeometry x="4.1200000000000045" y="66" width="103.5" height="30" as="geometry" />
        </mxCell>
        <mxCell id="g9lLfUykJCi8mAgqDcdI-29" value="&lt;font size=&quot;4&quot;&gt;计算节点&lt;/font&gt;" style="text;html=1;align=center;verticalAlign=middle;whiteSpace=wrap;rounded=0;" parent="g9lLfUykJCi8mAgqDcdI-25" vertex="1">
          <mxGeometry x="12" y="2" width="88" height="30" as="geometry" />
        </mxCell>
        <mxCell id="g9lLfUykJCi8mAgqDcdI-38" value="" style="group" parent="1" vertex="1" connectable="0">
          <mxGeometry x="310" y="890" width="240" height="67" as="geometry" />
        </mxCell>
        <mxCell id="g9lLfUykJCi8mAgqDcdI-39" value="" style="rounded=0;whiteSpace=wrap;html=1;" parent="g9lLfUykJCi8mAgqDcdI-38" vertex="1">
          <mxGeometry x="6.101694915254237" y="1" width="227.79661016949152" height="66" as="geometry" />
        </mxCell>
        <mxCell id="g9lLfUykJCi8mAgqDcdI-40" value="&lt;font size=&quot;4&quot;&gt;分层调度框架&lt;/font&gt;" style="text;html=1;align=center;verticalAlign=middle;whiteSpace=wrap;rounded=0;" parent="g9lLfUykJCi8mAgqDcdI-38" vertex="1">
          <mxGeometry width="240" height="30" as="geometry" />
        </mxCell>
        <mxCell id="g9lLfUykJCi8mAgqDcdI-41" value="&lt;font size=&quot;3&quot;&gt;调度优化策略&lt;/font&gt;" style="rounded=1;whiteSpace=wrap;html=1;fillColor=#f5f5f5;fontColor=#333333;strokeColor=#666666;" parent="g9lLfUykJCi8mAgqDcdI-38" vertex="1">
          <mxGeometry x="14.481355932203398" y="31" width="210.50847457627117" height="30" as="geometry" />
        </mxCell>
        <mxCell id="g9lLfUykJCi8mAgqDcdI-31" value="" style="rounded=0;whiteSpace=wrap;html=1;" parent="1" vertex="1">
          <mxGeometry x="316" y="760" width="112" height="43" as="geometry" />
        </mxCell>
        <mxCell id="g9lLfUykJCi8mAgqDcdI-34" value="&lt;font size=&quot;4&quot;&gt;AI负载&lt;/font&gt;" style="text;html=1;align=center;verticalAlign=middle;whiteSpace=wrap;rounded=0;" parent="1" vertex="1">
          <mxGeometry x="328" y="760" width="88" height="44.36" as="geometry" />
        </mxCell>
        <mxCell id="zFQH8LCMSSH1AFrbxPfl-3" value="" style="rounded=0;whiteSpace=wrap;html=1;" vertex="1" parent="1">
          <mxGeometry x="316" y="818.64" width="112" height="43" as="geometry" />
        </mxCell>
        <mxCell id="zFQH8LCMSSH1AFrbxPfl-4" value="&lt;font size=&quot;4&quot;&gt;终端设备&lt;/font&gt;" style="text;html=1;align=center;verticalAlign=middle;whiteSpace=wrap;rounded=0;" vertex="1" parent="1">
          <mxGeometry x="328" y="820" width="88" height="43" as="geometry" />
        </mxCell>
      </root>
    </mxGraphModel>
  </diagram>
</mxfile>
